<svg width="1503" height="1504" viewBox="0 0 1503 1504" fill="none" xmlns="http://www.w3.org/2000/svg">
  <rect x="287" y="258" width="928" height="844" fill="white"/>
  <path fill-rule="evenodd" clip-rule="evenodd" d="M1502.5 752C1502.5 1166.77 1166.27 1503 751.5 1503C336.734 1503 0.5 1166.77 0.5 752C0.5 337.234 336.734 1 751.5 1C1166.27 1 1502.5 337.234 1502.5 752ZM538.688 1050.86H392.94C362.314 1050.86 347.186 1050.86 337.962 1044.96C327.999 1038.5 321.911 1027.8 321.173 1015.99C320.619 1005.11 328.184 991.822 343.312 965.255L703.182 330.935C718.495 303.999 726.243 290.531 736.021 285.55C746.537 280.2 759.083 280.2 769.599 285.55C779.377 290.531 787.126 303.999 802.438 330.935L876.42 460.079L876.797 460.738C893.336 489.635 901.723 504.289 905.385 519.669C909.443 536.458 909.443 554.169 905.385 570.958C901.695 586.455 893.393 601.215 876.604 630.549L687.573 964.702L687.084 965.558C670.436 994.693 661.999 1009.26 650.306 1020.4C637.576 1032.54 622.263 1041.14 605.474 1045.68C590.161 1050.86 573.004 1050.86 538.688 1050.86ZM906.75 1050.86H1115.59C1146.4 1050.86 1161.9 1050.86 1171.13 1044.78C1181.09 1038.32 1187.36 1027.43 1187.92 1015.63C1188.45 1005.29 1181.06 992.369 1167.07 967.803C1167.03 967.716 1166.98 967.629 1166.93 967.543L1075.76 801.864L1075.06 800.611C1060.51 773.652 1053.15 760.172 1043.08 755.329C1032.56 750.162 1020.2 750.162 1009.68 755.329C999.702 760.105 992.352 773.335 977.651 799.795L886.625 965.289C886.594 965.344 886.562 965.4 886.53 965.456C872.458 990.856 865.568 1003.56 866.144 1014.96C866.882 1026.77 873.153 1037.47 883.116 1043.92C892.341 1050.86 907.469 1050.86 937.724 1050.86H906.75Z" fill="#E84142"/>
</svg>
