<svg xmlns="http://www.w3.org/2000/svg" viewBox="0 0 32 32">
  <path fill="#1969FF" fill-rule="evenodd" d="M16 0c8.837 0 16 7.163 16 16s-7.163 16-16 16S0 24.837 0 16 7.163 0 16 0zM6.667 15.613l9.68-5.53a.667.667 0 0 1 .665-.001l8.32 4.746a.667.667 0 0 1 0 1.16l-8.32 4.745a.667.667 0 0 1-.666 0l-2.694-1.54v2.054a.667.667 0 0 1-.334.577l-6.054 3.47a.667.667 0 0 1-.918-.23.667.667 0 0 1-.082-.326V16.19a.667.667 0 0 1 .333-.577zM24 10.667a1.333 1.333 0 1 1 0 2.666 1.333 1.333 0 0 1 0-2.666z"/>
</svg>
