<svg viewBox="0 0 100 100" fill="none" xmlns="http://www.w3.org/2000/svg">
  <circle cx="50" cy="50" r="50" fill="#53CBC9"/>
  <path fill-rule="evenodd" clip-rule="evenodd" d="M60.655 20.859C61.468 21.186 62.113 21.795 62.481 22.579L76.856 51.545C77.22 52.32 77.22 53.212 76.856 53.987C76.488 54.771 75.846 55.379 75.034 55.707L50.683 65.645C50.239 65.825 49.761 65.825 49.317 65.645L24.966 55.707C24.155 55.379 23.512 54.77 23.144 53.986C22.781 53.211 22.781 52.32 23.144 51.545L37.52 22.578C37.887 21.794 38.532 21.185 39.345 20.858C40.155 20.531 41.056 20.531 41.866 20.858L50 23.957L58.134 20.858C58.944 20.531 59.845 20.532 60.655 20.859Z" fill="white"/>
  <path d="M75.034 60.601C75.846 60.273 76.488 59.664 76.856 58.88C77.22 58.105 77.22 57.213 76.856 56.438L62.481 27.472C62.113 26.688 61.468 26.079 60.655 25.752C59.845 25.425 58.944 25.424 58.134 25.751L50 28.851L41.866 25.751C41.056 25.424 40.155 25.425 39.345 25.752C38.532 26.079 37.887 26.688 37.52 27.472L23.144 56.439C22.781 57.214 22.781 58.105 23.144 58.88C23.512 59.664 24.155 60.273 24.966 60.601L49.317 70.539C49.761 70.719 50.239 70.719 50.683 70.539L75.034 60.601Z" fill="#E1027F"/>
  <path d="M42.867 30.744L58.134 25.751C58.944 25.424 59.845 25.425 60.655 25.752C61.468 26.079 62.113 26.688 62.481 27.472L76.856 56.438C77.22 57.213 77.22 58.105 76.856 58.88C76.488 59.664 75.846 60.273 75.034 60.601L63.663 65.061L46.885 30.368C45.596 27.842 42.867 30.744 42.867 30.744Z" fill="#231F20" fill-opacity="0.1"/>
</svg>
